<svg width="233" height="113" viewBox="0 0 233 113" fill="none" xmlns="http://www.w3.org/2000/svg">
<path d="M65.2407 110.781L74.6634 110.781L74.6634 111.576L75.6512 111.576L84.6163 111.576L85.6041 111.576L85.6041 110.781L214.381 110.781C224.093 110.781 231.978 103.05 231.978 93.478L231.978 18.4927C231.978 8.90615 224.082 1.18976 214.381 1.18976L19.5286 1.18977C9.81677 1.18977 1.9318 8.92053 1.9318 18.4928L1.9318 20.8908L1.92335 20.8908L0.935543 20.8908L0.935543 21.8786L0.935544 35.6058L0.935544 36.5934L1.92335 36.5934L1.93181 36.5934L1.93181 90.1517C1.93181 94.9136 3.88398 100.036 7.01092 103.971C10.1359 107.904 14.5463 110.781 19.5286 110.781L34.6194 110.781L34.6194 111.576L35.6073 111.576L35.6075 111.576L35.6082 111.576L35.6114 111.576L35.6241 111.576L35.6728 111.576L35.8581 111.576L36.5194 111.576L38.5262 111.576L40.8967 111.576L41.5949 111.576L41.7827 111.576L41.8314 111.576L41.8438 111.576L41.8468 111.576L41.8477 111.576L41.848 111.576L42.8356 111.576L42.8356 110.781L55.1794 110.781L55.1794 111.698L56.1672 111.698L59.8288 111.698L64.2528 111.698L65.2407 111.698L65.2407 110.781Z" fill="white" stroke="#DDDDDD" stroke-width="0.811179" stroke-linecap="square"/>
<path fill-rule="evenodd" clip-rule="evenodd" d="M225.455 55.4436C225.455 49.4401 220.499 44.5733 214.384 44.5733C208.269 44.5733 203.312 49.4401 203.312 55.4436C203.312 61.4471 208.269 66.314 214.384 66.314C220.499 66.314 225.455 61.4471 225.455 55.4436Z" fill="#DDDDDD"/>
<path d="M33.9199 9.78813L33.9199 102.186L197.777 102.186L197.777 9.78812L33.9199 9.78813Z" fill="#3EC6FF"/>
<path d="M33.9199 9.78813L33.9199 102.186L197.777 102.186L197.777 9.78812L33.9199 9.78813Z" fill="#F0F0F0"/>
<path fill-rule="evenodd" clip-rule="evenodd" d="M20.6353 55.9836C20.6353 54.4826 19.3961 53.2661 17.8675 53.2661C16.3388 53.2661 15.0996 54.4826 15.0996 55.9836C15.0996 57.4844 16.3388 58.7012 17.8675 58.7012C19.3961 58.7012 20.6353 57.4844 20.6353 55.9836Z" fill="#868686"/>
</svg>
