<svg width="599" height="339" viewBox="0 0 599 339" fill="none" xmlns="http://www.w3.org/2000/svg">
<path d="M534.779 1H64.8535C58.7277 1 53.7617 5.96595 53.7617 12.0918V322.766C53.7617 328.892 58.7277 333.858 64.8535 333.858H534.779C540.905 333.858 545.871 328.892 545.871 322.766V12.0918C545.871 5.96595 540.905 1 534.779 1Z" fill="white" stroke="#DDDDDD" stroke-width="0.598823"/>
<path d="M529.413 19.9526H72.1182V296.958H529.413V19.9526Z" fill="#F0F0F0"/>
<path fill-rule="evenodd" clip-rule="evenodd" d="M298.279 323.7H599V332.125C599 332.125 583.49 338.932 573.879 338.932C564.264 338.932 298.341 338.932 298.341 338.932" fill="#CECED6"/>
<path fill-rule="evenodd" clip-rule="evenodd" d="M300.764 323.7H0.0439453V332.125C0.0439453 332.125 15.5544 338.932 25.1665 338.932C34.7786 338.932 300.703 338.932 300.703 338.932" fill="#CECED6"/>
</svg>
